<?xml version="1.0" encoding="utf-8"?>
<!-- Generator: Adobe Illustrator 21.1.0, SVG Export Plug-In . SVG Version: 6.00 Build 0)  -->
<svg version="1.1"
	 id="Layer_1" xmlns:cc="http://creativecommons.org/ns#" xmlns:dc="http://purl.org/dc/elements/1.1/" xmlns:inkscape="http://www.inkscape.org/namespaces/inkscape" xmlns:rdf="http://www.w3.org/1999/02/22-rdf-syntax-ns#" xmlns:sodipodi="http://sodipodi.sourceforge.net/DTD/sodipodi-0.dtd" xmlns:svg="http://www.w3.org/2000/svg"
	 xmlns="http://www.w3.org/2000/svg" xmlns:xlink="http://www.w3.org/1999/xlink" x="0px" y="0px" viewBox="0 0 30.7 21.7"
	 style="enable-background:new 0 0 30.7 21.7;" xml:space="preserve">
<g transform="translate(0,-952.36218)">
	<path d="M2.2,953.4c-0.9,0-1.7,0.8-1.7,1.7v16.1c0,0.9,0.8,1.7,1.7,1.7h26.2c0.9,0,1.7-0.8,1.7-1.7v-16.1c0-0.9-0.8-1.7-1.7-1.7
		H2.2z M4.2,955.5h22.4l-10.8,9.7c-0.1,0.1-0.6,0.1-0.7,0L4.2,955.5z M2.6,956.7l7.6,6.8l-7.6,6.3V956.7z M28.1,956.7v13l-7.6-6.3
		L28.1,956.7z M11.6,964.8l2,1.8c1,0.9,2.4,0.9,3.4,0l2-1.8l7.4,6.1H4.3L11.6,964.8z"/>
</g>
</svg>
